Coordinates
version=1
nRows=19
nColumns=24
inDegrees=yes

Units are S.I. units (second, meters, Newtons, ...)
Angles are in degrees.

endheader
time	pelvis_tilt	pelvis_list	pelvis_rotation	pelvis_tx	pelvis_ty	pelvis_tz	hip_flexion_r	hip_adduction_r	hip_rotation_r	knee_angle_r	ankle_angle_r	subtalar_angle_r	mtp_angle_r	hip_flexion_l	hip_adduction_l	hip_rotation_l	knee_angle_l	ankle_angle_l	subtalar_angle_l	mtp_angle_l	lumbar_extension	lumbar_bending	lumbar_rotation
      1.08766667	      5.82445493	      1.69039163	      0.24433501	      0.03707084	      0.99585719	      0.32176175	    -28.37985515	      0.79564404	     -3.88149341	     -1.00998321	     11.99931906	     -1.87844060	     -1.56423795	     13.75549312	      2.81091611	      3.79774960	      5.47895880	     -0.36166552	     -8.95622096	     -1.03082802	    -19.83529279	      2.40825485	      7.03268730
      1.09183333	      5.84537687	      1.85280925	      0.23237600	      0.04303027	      0.99488102	      0.32126331	    -28.53916258	      0.57573016	     -4.06640083	     -1.49848946	     12.17991078	     -1.59908756	     -1.36653498	     13.78021097	      3.07750758	      4.00150605	      5.29835350	     -0.59040466	     -9.22978952	     -0.93163402	    -19.84067970	      2.20434238	      7.01021364
      1.09600000	      5.85149952	      2.02828553	      0.22664236	      0.04901600	      0.99392433	      0.32073838	    -28.66194568	      0.34197312	     -4.25490534	     -2.03247489	     12.35376285	     -1.33840904	     -1.13908161	     13.84030635	      3.36282087	      4.22460747	      5.00091361	     -0.85687678	     -9.56034395	     -0.82781361	    -19.82379473	      1.98552779	      6.97950553
      1.10016667	      5.86615361	      2.23155716	      0.21663289	      0.05502179	      0.99301717	      0.32020675	    -28.78164634	      0.07673843	     -4.43464267	     -2.59003197	     12.51009494	     -1.08607207	     -0.89777803	     13.90601647	      3.67959385	      4.43725484	      4.60237965	     -1.18138926	     -9.92655438	     -0.72728664	    -19.82989098	      1.74641073	      6.93810715
      1.10433333	      5.87485510	      2.43903627	      0.21453237	      0.06103573	      0.99213816	      0.31966576	    -28.86888668	     -0.19056033	     -4.61842411	     -3.20192614	     12.64525296	     -0.86289252	     -0.62343572	     13.99951884	      4.00480436	      4.65799421	      4.09828344	     -1.54254342	    -10.34708070	     -0.62123324	    -19.81468126	      1.48953044	      6.88896108
      1.10850000	      5.89004255	      2.66135436	      0.21376530	      0.06704618	      0.99130407	      0.31910473	    -28.93611602	     -0.47484154	     -4.80246490	     -3.86821039	     12.74996601	     -0.65462281	     -0.26806158	     14.10390824	      4.34969944	      4.89123332	      3.50073230	     -1.93800575	    -10.81427747	     -0.49302599	    -19.81862969	      1.22549938	      6.83000541
      1.11266667	      5.91269215	      2.89997869	      0.24293466	      0.07308412	      0.99050363	      0.31850715	    -29.02290066	     -0.75841566	     -4.98476246	     -4.51450559	     12.84251078	     -0.48780734	      0.40642920	     14.22438721	      4.72217101	      5.15742579	      2.79905256	     -2.37279443	    -11.35485731	     -0.26394569	    -19.82920385	      0.93482762	      6.75949305
      1.11683333	      5.87182683	      3.12546026	      0.22464160	      0.07913420	      0.98970498	      0.31796199	    -28.99011100	     -1.05614175	     -5.07462205	     -5.25183400	     12.85936391	     -0.40427351	      0.70722166	     14.44150273	      5.07040050	      5.23654619	      2.00447050	     -2.87452466	    -11.73801894	     -0.18072420	    -19.75184975	      0.66122738	      6.69693034
      1.12100000	      5.86955983	      3.37687337	      0.24412289	      0.08518266	      0.98896217	      0.31734868	    -28.98739237	     -1.36366334	     -5.23512246	     -6.02080572	     12.88082967	     -0.26857852	      1.08325577	     14.62238562	      5.45906811	      5.42606316	      1.15853636	     -3.39476824	    -12.28226218	     -0.08517284	    -19.74190158	      0.36638632	      6.60593380
      1.12516667	      5.89822551	      3.60988907	      0.25461981	      0.09120604	      0.98830879	      0.31677821	    -29.01179675	     -1.64551974	     -5.27956203	     -6.77593747	     12.72485132	     -0.46934379	      6.30954617	     14.77592242	      5.82463934	      5.62643042	      0.27347137	     -3.96963696	    -12.89897446	      1.16772442	    -19.77489459	      0.07802631	      6.55050776
      1.12933333	      5.86204863	      3.85971707	      0.29278922	      0.09728335	      0.98760348	      0.31612811	    -28.93397089	     -1.94521354	     -5.43221868	     -7.61633039	     12.63327326	     -0.35746601	      6.38195069	     15.05895327	      6.21890812	      5.68463854	     -0.77251852	     -4.41205128	    -13.26313743	      1.15032659	    -19.70126400	     -0.22030710	      6.43890529
      1.13350000	      5.83221968	      4.09554556	      0.32617185	      0.10332697	      0.98695573	      0.31549136	    -28.83151971	     -2.22964293	     -5.51908639	     -8.51114552	     12.51803678	     -0.37573028	      6.50739360	     15.32968773	      6.59758810	      5.79966056	     -1.82495398	     -4.92003273	    -13.77602941	      1.12966891	    -19.65721067	     -0.50213585	      6.34293418
      1.13766667	      5.80821517	      4.32629308	      0.36724406	      0.10936335	      0.98635560	      0.31483765	    -28.71495645	     -2.50384655	     -5.58556865	     -9.43957636	     12.34615783	     -0.43961083	      6.69435614	     15.60180546	      6.97406848	      5.92146191	     -2.91174752	     -5.42198824	    -14.30345311	      1.10398231	    -19.61874727	     -0.77657770	      6.24152887
      1.14183333	      5.78722840	      4.56544837	      0.40604037	      0.11541233	      0.98580321	      0.31418909	    -28.58352401	     -2.78396686	     -5.62395927	    -10.39737627	     12.10983590	     -0.58252398	      6.89181857	     15.88021238	      7.35777961	      6.00145548	     -4.03853485	     -5.87922168	    -14.76892183	      1.07480799	    -19.59762258	     -1.05833282	      6.14253883
      1.14600000	      5.75835041	      4.76907061	      0.45786430	      0.12143122	      0.98527930	      0.31351543	    -28.40259539	     -3.02526211	     -5.66232936	    -11.42663046	     11.82583581	     -0.72874675	      7.16074801	     16.17584792	      7.70878972	      6.09941895	     -5.19499652	     -6.31623268	    -15.26727396	      1.03327961	    -19.54796931	     -1.30527520	      6.03897984
      1.15016667	      5.76688688	      4.99379499	      0.50550221	      0.12746761	      0.98484851	      0.31284619	    -28.25536059	     -3.28483173	     -5.69201500	    -12.44688807	     11.37706797	     -1.00655259	     12.62560852	     16.42028031	      8.08304176	      6.20904218	     -6.35062414	     -6.68735838	    -15.77874341	      0.25563698	    -19.55761829	     -1.59023206	      5.97631944
      1.15433333	      5.77473220	      5.21534851	      0.54576623	      0.13350862	      0.98446126	      0.31220143	    -28.07322185	     -3.54125284	     -5.69697942	    -13.53715757	     10.97555059	     -1.24543513	     12.65681661	     16.68047188	      8.44520460	      6.22476237	     -7.54980175	     -6.94811887	    -16.11464265	      0.24537332	    -19.56366178	     -1.86801415	      5.85438003
      1.15850000	      5.74119272	      5.38235129	      0.59595917	      0.13949695	      0.98406572	      0.31150401	    -27.78623115	     -3.74803474	     -5.69491043	    -14.72796185	     10.51078269	     -1.48680260	     12.75600300	     16.98044969	      8.75864004	      6.30338828	     -8.74585245	     -7.20295839	    -16.51694224	      0.21642870	    -19.51628731	     -2.05052028	      5.75077262
      1.16266667	      5.73476269	      5.55972565	      0.63789539	      0.14549688	      0.98374649	      0.31082509	    -27.50951310	     -3.96461562	     -5.68198917	    -15.94127346	      9.98099214	     -1.76518546	     12.92575454	     17.24187363	      9.08028516	      6.36289106	     -9.93851835	     -7.37524274	    -16.89213791	      0.16535270	    -19.50485306	     -2.25866219	      5.65524329
